<svg id="Layer_1" data-name="Layer 1" xmlns="http://www.w3.org/2000/svg" width="91.8884" height="91.8866" viewBox="0 0 91.8884 91.8866"><defs><style>.cls-1{fill:#f05133;}</style></defs><path class="cls-1" d="M350.55,373l-40.1191-40.1177a5.9181,5.9181,0,0,0-8.3692,0l-8.33,8.3316,10.5674,10.5678a7.0278,7.0278,0,0,1,8.8994,8.9595l10.1856,10.1846a7.034,7.034,0,1,1-4.2168,3.97l-9.5-9.499v24.9966a7.03,7.03,0,1,1-5.7891-.2051V364.96a7.0434,7.0434,0,0,1-3.8222-9.2343l-10.418-10.4195-27.51,27.5074a5.9213,5.9213,0,0,0,0,8.3711l40.1211,40.1176a5.9188,5.9188,0,0,0,8.3692,0L350.55,381.3711A5.92,5.92,0,0,0,350.55,373Z" transform="translate(-260.395 -331.1491)"/></svg>